<?xml version="1.0" standalone="no"?>
<!DOCTYPE svg PUBLIC "-//W3C//DTD SVG 20010904//EN"
 "http://www.w3.org/TR/2001/REC-SVG-20010904/DTD/svg10.dtd">
<svg version="1.0" xmlns="http://www.w3.org/2000/svg"
 width="836.000000pt" height="836.000000pt" viewBox="0 0 836.000000 836.000000"
 preserveAspectRatio="xMidYMid meet">
<metadata>
Created by potrace 1.14, written by Peter Selinger 2001-2017
</metadata>
<g transform="translate(0.000000,836.000000) scale(0.100000,-0.100000)"
fill="#000000" stroke="none">
<path d="M3342 8054 c-39 -20 -82 -88 -82 -130 0 -25 90 -396 137 -564 21 -74
58 -110 115 -110 25 0 56 8 75 20 36 21 73 85 73 124 0 14 -18 94 -39 178 -22
84 -56 216 -76 293 -29 113 -41 146 -64 168 -35 36 -93 44 -139 21z"/>
<path d="M5110 8038 c-18 -13 -42 -35 -53 -49 -27 -38 -147 -613 -136 -653 12
-41 46 -74 90 -88 33 -9 44 -8 85 13 78 39 78 39 153 399 13 58 31 144 42 192
16 73 17 92 7 124 -26 76 -120 108 -188 62z"/>
<path d="M1743 7251 c-58 -37 -85 -109 -64 -174 7 -19 94 -139 194 -268 210
-268 227 -283 302 -254 73 28 111 116 81 188 -15 36 -343 464 -384 500 -31 28
-91 32 -129 8z"/>
<path d="M6693 7152 c-48 -26 -421 -449 -434 -494 -33 -104 90 -195 197 -146
28 13 407 432 430 476 56 109 -80 225 -193 164z"/>
<path d="M2975 6269 c-280 -19 -571 -93 -845 -214 -110 -49 -125 -59 -145
-101 -15 -31 -15 -181 -9 -1841 l7 -1808 32 -32 c51 -51 84 -51 216 0 316 123
558 170 869 170 309 0 556 -44 927 -164 l152 -49 165 55 c321 108 611 157 936
157 345 0 613 -54 876 -177 91 -43 140 -45 183 -10 16 14 34 40 40 58 6 21 7
632 3 1829 l-7 1797 -21 28 c-45 61 -276 177 -466 233 -438 130 -933 96 -1540
-106 l-168 -55 -112 44 c-287 114 -522 168 -818 187 -80 5 -149 9 -155 8 -5 0
-59 -4 -120 -9z m2640 -265 c158 -24 291 -66 431 -135 l82 -40 4 -1637 c2
-900 3 -1638 3 -1639 -1 -2 -35 8 -76 22 -116 40 -257 73 -406 97 -181 27
-533 30 -728 4 -174 -23 -354 -59 -503 -101 -68 -19 -128 -35 -133 -35 -5 0
-9 126 -9 304 l0 303 50 6 c72 9 184 44 265 83 276 135 445 410 445 727 0 62
-3 71 -29 98 -24 23 -38 29 -73 29 -78 -1 -103 -39 -112 -168 -16 -218 -124
-391 -306 -486 -58 -31 -194 -76 -227 -76 -10 0 -13 241 -13 1224 l0 1224 143
47 c269 89 554 149 792 169 85 7 295 -4 400 -20z m-2228 1 c127 -16 251 -43
378 -81 119 -36 296 -106 301 -118 2 -6 3 -558 2 -1227 l-3 -1216 -75 19
c-100 26 -200 80 -273 148 -113 104 -170 224 -189 397 -10 86 -16 111 -35 134
-67 79 -183 22 -183 -88 0 -73 31 -225 60 -303 97 -251 317 -435 599 -501
l101 -23 0 -308 0 -307 -32 10 c-640 197 -1183 207 -1721 31 l-87 -28 -2 1163
c-2 640 -3 1377 -3 1639 l0 476 68 28 c162 69 381 129 562 154 137 19 389 19
532 1z"/>
<path d="M5195 5317 c-119 -47 -194 -143 -195 -250 0 -113 79 -187 202 -187
109 0 206 59 252 152 74 149 -14 299 -175 297 -30 0 -67 -6 -84 -12z"/>
<path d="M2989 5307 c-24 -13 -57 -42 -73 -65 -75 -106 -5 -278 138 -343 27
-12 65 -19 112 -19 60 0 76 4 116 29 54 35 88 97 88 162 -1 175 -229 316 -381
236z"/>
<path d="M710 5769 c-70 -29 -103 -103 -76 -174 9 -23 29 -53 44 -67 35 -32
545 -258 584 -258 119 0 162 158 66 247 -24 22 -520 247 -568 257 -14 3 -36 1
-50 -5z"/>
<path d="M7695 5625 c-5 -2 -131 -43 -280 -90 -241 -77 -273 -90 -302 -121
-35 -35 -43 -78 -24 -126 14 -37 61 -77 104 -89 43 -11 101 4 468 126 187 62
209 78 209 153 0 52 -20 93 -58 121 -28 19 -96 35 -117 26z"/>
<path d="M830 3984 c-63 -8 -185 -23 -270 -33 l-155 -19 -32 -36 c-39 -42 -44
-91 -14 -146 41 -78 88 -90 266 -70 312 36 433 52 458 62 95 37 88 186 -13
239 -40 22 -77 22 -240 3z"/>
<path d="M7312 3830 c-66 -41 -77 -130 -25 -199 36 -47 71 -58 203 -65 63 -4
196 -12 296 -17 158 -10 185 -9 211 4 100 52 81 211 -29 250 -30 11 -129 21
-323 32 -154 8 -284 15 -290 15 -5 0 -25 -9 -43 -20z"/>
<path d="M1475 2518 c-40 -23 -466 -362 -485 -386 -13 -16 -20 -40 -20 -70 0
-38 5 -50 38 -82 46 -47 96 -59 150 -38 51 20 490 366 508 399 45 89 -26 190
-133 189 -21 0 -47 -6 -58 -12z"/>
<path d="M6752 2410 c-62 -38 -81 -138 -39 -201 22 -33 402 -362 462 -400 34
-22 82 -24 120 -7 61 28 87 134 48 201 -21 36 -430 387 -480 411 -42 21 -71
20 -111 -4z"/>
<path d="M2605 1421 c-44 -27 -55 -43 -127 -181 -36 -69 -97 -186 -137 -261
-76 -145 -85 -184 -54 -229 52 -75 144 -85 214 -22 17 16 85 134 165 287 142
271 155 308 125 363 -31 57 -127 80 -186 43z"/>
<path d="M5606 1389 c-59 -17 -96 -75 -96 -150 0 -35 21 -80 121 -263 67 -122
135 -245 152 -273 32 -54 73 -83 120 -83 35 0 89 40 110 80 35 68 24 101 -136
390 -80 146 -156 272 -169 282 -30 21 -66 28 -102 17z"/>
<path d="M4091 1028 c-19 -12 -44 -36 -55 -51 -20 -28 -21 -38 -19 -354 2
-275 5 -329 18 -349 52 -80 172 -75 224 10 21 34 22 43 19 365 l-3 331 -31 31
c-43 43 -105 50 -153 17z"/>
</g>
</svg>
